<svg xmlns="http://www.w3.org/2000/svg" aria-hidden="true" style="position:absolute;width:0;height:0;overflow:hidden">
  <defs>
    <symbol id="icon-hero" viewBox="0 0 560 32">
      <path d="M0 0h560v32H0V0z"/>
    </symbol>
    <symbol id="icon-logo" viewBox="0 0 109 32">
      <path fill="#f5f8fc" d="M32.018 25.6V6.982h7.345c1.412 0 2.615.27 3.609.809.994.533 1.752 1.276 2.273 2.227.527.945.791 2.036.791 3.273s-.267 2.327-.8 3.273c-.533.945-1.306 1.682-2.318 2.209-1.006.527-2.224.791-3.655.791h-4.682v-3.155h4.045c.758 0 1.382-.13 1.873-.391a2.589 2.589 0 0 0 1.109-1.1c.248-.473.373-1.015.373-1.627 0-.618-.124-1.158-.373-1.618a2.487 2.487 0 0 0-1.109-1.082c-.497-.261-1.127-.391-1.891-.391h-2.655v15.4h-3.936zm20.109.264c-.891 0-1.685-.155-2.382-.464a3.84 3.84 0 0 1-1.655-1.391c-.4-.618-.6-1.388-.6-2.309 0-.776.142-1.427.427-1.955s.673-.951 1.164-1.273a5.627 5.627 0 0 1 1.673-.727 12.74 12.74 0 0 1 1.982-.346 52.117 52.117 0 0 0 1.964-.236c.497-.079.858-.194 1.082-.345s.336-.376.336-.673v-.055c0-.576-.182-1.021-.545-1.336-.358-.315-.867-.473-1.527-.473-.697 0-1.251.155-1.664.464a2.131 2.131 0 0 0-.818 1.146l-3.582-.291a4.864 4.864 0 0 1 1.073-2.2c.533-.624 1.221-1.103 2.064-1.436.848-.339 1.83-.509 2.945-.509.776 0 1.518.091 2.227.273a5.853 5.853 0 0 1 1.9.845c.558.382.997.873 1.318 1.473.321.594.482 1.306.482 2.136V25.6h-3.673v-1.936h-.109a3.948 3.948 0 0 1-.9 1.155 4.17 4.17 0 0 1-1.355.773c-.527.182-1.136.273-1.827.273zm1.109-2.673c.57 0 1.073-.112 1.509-.336.436-.23.779-.539 1.027-.927s.373-.827.373-1.318v-1.482a2.078 2.078 0 0 1-.5.218 9.089 9.089 0 0 1-.7.173c-.261.048-.521.094-.782.136l-.709.1c-.455.067-.851.173-1.191.318s-.603.343-.791.591c-.188.242-.282.545-.282.909 0 .527.191.93.573 1.209.388.273.879.409 1.473.409zm16.05 7.936c-1.255 0-2.33-.173-3.227-.518-.891-.339-1.6-.803-2.127-1.391s-.87-1.248-1.027-1.982l3.582-.482c.109.279.282.539.518.782s.548.436.936.582c.394.151.873.227 1.436.227.842 0 1.536-.206 2.082-.618.552-.406.827-1.088.827-2.045v-2.555h-.164c-.17.388-.424.754-.764 1.1s-.776.627-1.309.845-1.17.327-1.909.327c-1.049 0-2.003-.242-2.864-.727-.855-.491-1.536-1.239-2.045-2.245-.503-1.012-.755-2.291-.755-3.836 0-1.582.258-2.903.773-3.964s1.2-1.855 2.055-2.382a5.313 5.313 0 0 1 2.827-.791c.782 0 1.436.133 1.964.4.527.261.951.588 1.273.982.327.388.579.77.755 1.145h.145v-2.345h3.846v14.1c0 1.188-.291 2.182-.873 2.982s-1.388 1.4-2.418 1.8c-1.024.406-2.203.609-3.536.609zm.082-8.636c.624 0 1.152-.154 1.582-.464.436-.315.77-.764 1-1.345.236-.588.355-1.291.355-2.109s-.115-1.527-.345-2.127c-.23-.606-.564-1.076-1-1.409s-.967-.5-1.591-.5c-.636 0-1.173.173-1.609.518-.436.339-.767.812-.991 1.418s-.336 1.306-.336 2.1c0 .806.112 1.503.336 2.091.23.582.561 1.033.991 1.355.436.315.973.473 1.609.473zm16.191 3.382c-1.436 0-2.673-.291-3.709-.873a5.981 5.981 0 0 1-2.382-2.491c-.558-1.079-.836-2.355-.836-3.827 0-1.436.279-2.697.836-3.782s1.342-1.93 2.355-2.536c1.018-.606 2.212-.909 3.582-.909.921 0 1.779.148 2.573.445.8.291 1.497.73 2.091 1.318.6.588 1.067 1.327 1.4 2.218.334.885.5 1.921.5 3.109v1.064H80.178v-2.4h8.145c0-.558-.121-1.052-.364-1.482s-.579-.767-1.009-1.009c-.424-.248-.918-.373-1.482-.373-.588 0-1.109.136-1.564.409-.448.267-.8.627-1.055 1.082a3.05 3.05 0 0 0-.391 1.5v2.282c0 .691.127 1.288.382 1.791.261.503.627.891 1.1 1.164s1.033.409 1.682.409c.43 0 .824-.061 1.182-.182s.664-.303.918-.545c.255-.242.449-.539.582-.891l3.582.236a4.901 4.901 0 0 1-1.118 2.255c-.558.636-1.279 1.133-2.164 1.491-.879.352-1.894.527-3.045.527zm20.555-10.255-3.546.218a1.824 1.824 0 0 0-.391-.818 2.08 2.08 0 0 0-.791-.591c-.321-.152-.706-.227-1.154-.227-.601 0-1.106.127-1.519.382-.412.248-.618.582-.618 1 0 .333.133.615.4.845s.725.415 1.373.555l2.527.509c1.358.279 2.37.727 3.036 1.345s1 1.43 1 2.436c0 .915-.27 1.718-.809 2.409-.533.691-1.267 1.23-2.2 1.618-.928.382-1.998.573-3.209.573-1.849 0-3.322-.385-4.419-1.155-1.091-.776-1.73-1.83-1.918-3.164l3.809-.2c.115.564.394.994.837 1.291.442.291 1.009.436 1.701.436.678 0 1.224-.13 1.636-.391.419-.267.631-.609.636-1.027-.005-.352-.154-.639-.445-.864-.291-.23-.74-.406-1.345-.527l-2.418-.482c-1.364-.273-2.379-.745-3.046-1.418-.661-.673-.991-1.53-.991-2.573 0-.897.242-1.67.727-2.318.491-.648 1.179-1.148 2.064-1.5.891-.352 1.934-.527 3.128-.527 1.764 0 3.152.373 4.164 1.118 1.019.745 1.612 1.761 1.782 3.046z" style="fill:var(--color1, #f5f8fc)"/>
      <path fill="#ffca42" d="M3.258 23.223H22.4V2.743H3.205C1.437 2.749.006 4.194 0 5.979v18.858h.001L0 24.861c0 1.888 1.468 3.483 3.205 3.483H22.4v-1.707H3.205c-.792 0-1.515-.846-1.515-1.776 0-.887.718-1.637 1.567-1.637zM5.072 4.467h5.072v9.217l-2.557-2.266-2.515 2.253V4.467zM1.691 5.992A1.53 1.53 0 0 1 3.206 4.45h.176v11.52h1.672l2.54-2.275 2.566 2.275h1.675V4.45h8.875v17.067H3.259c-.55 0-1.09.145-1.567.42V5.992h-.001z" style="fill:var(--color2, #ffca42)"/>
    </symbol>
    <symbol id="icon-linkedin" viewBox="0 0 32 32">
      <path d="M31.992 32v-.001H32V20.263c0-5.741-1.236-10.164-7.948-10.164-3.227 0-5.392 1.771-6.276 3.449h-.093v-2.913h-6.364v21.364h6.627V21.42c0-2.785.528-5.479 3.977-5.479 3.399 0 3.449 3.179 3.449 5.657v10.401h6.62zM.528 10.636h6.635V32H.528V10.636zM3.843 0C1.722 0 0 1.721 0 3.843s1.721 3.879 3.843 3.879c2.121 0 3.843-1.757 3.843-3.879A3.846 3.846 0 0 0 3.843 0z"/>
    </symbol>
    <symbol id="icon-facebook" viewBox="0 0 32 32">
      <path d="M21.329 5.313h2.921V.225C23.746.156 22.013 0 19.994 0c-4.212 0-7.097 2.649-7.097 7.519V12H8.249v5.688h4.648V32h5.699V17.689h4.46l.708-5.688h-5.169V8.082c.001-1.644.444-2.769 2.735-2.769z"/>
    </symbol>
    <symbol id="icon-twitter" viewBox="0 0 32 32">
      <path d="M32 6.078c-1.19.522-2.458.868-3.78 1.036a6.523 6.523 0 0 0 2.886-3.626 13.11 13.11 0 0 1-4.16 1.588A6.574 6.574 0 0 0 22.154 3c-3.632 0-6.556 2.948-6.556 6.562 0 .52.044 1.02.152 1.496-5.454-.266-10.28-2.88-13.522-6.862a6.605 6.605 0 0 0-.898 3.316 6.57 6.57 0 0 0 2.914 5.452 6.479 6.479 0 0 1-2.964-.808v.072c0 3.188 2.274 5.836 5.256 6.446a6.548 6.548 0 0 1-1.72.216 5.8 5.8 0 0 1-1.242-.112c.85 2.598 3.262 4.508 6.13 4.57a13.182 13.182 0 0 1-8.134 2.798c-.538 0-1.054-.024-1.57-.09A18.469 18.469 0 0 0 10.064 29c12.072 0 18.672-10 18.672-18.668 0-.29-.01-.57-.024-.848A13.087 13.087 0 0 0 32 6.078z"/>
    </symbol>
    <symbol id="icon-instagram" viewBox="0 0 32 32">
      <path d="M31.969 9.408c-.075-1.7-.35-2.869-.744-3.882a7.803 7.803 0 0 0-1.85-2.838A7.867 7.867 0 0 0 26.543.844C25.524.45 24.361.175 22.661.1 20.948.019 20.404 0 16.06 0s-4.888.019-6.595.094c-1.7.075-2.869.35-3.882.744a7.803 7.803 0 0 0-2.838 1.85A7.867 7.867 0 0 0 .901 5.52C.507 6.539.232 7.702.157 9.402c-.081 1.713-.1 2.257-.1 6.601s.019 4.888.094 6.595c.075 1.7.35 2.869.744 3.882a7.895 7.895 0 0 0 1.85 2.838 7.867 7.867 0 0 0 2.832 1.844c1.019.394 2.182.669 3.882.744 1.706.075 2.25.094 6.595.094s4.888-.019 6.595-.094c1.7-.075 2.869-.35 3.882-.744a8.181 8.181 0 0 0 4.682-4.682c.394-1.019.669-2.182.744-3.882.075-1.707.094-2.25.094-6.595s-.006-4.888-.081-6.595zm-2.882 13.065c-.069 1.563-.331 2.407-.55 2.969a5.31 5.31 0 0 1-3.038 3.038c-.563.219-1.413.481-2.969.55-1.688.075-2.194.094-6.464.094s-4.782-.019-6.464-.094c-1.563-.069-2.407-.331-2.969-.55a4.926 4.926 0 0 1-1.838-1.194 4.974 4.974 0 0 1-1.194-1.838c-.219-.563-.481-1.413-.55-2.969-.075-1.688-.094-2.194-.094-6.464s.019-4.782.094-6.464c.069-1.563.331-2.407.55-2.969a4.868 4.868 0 0 1 1.2-1.838A4.974 4.974 0 0 1 6.639 3.55c.563-.219 1.413-.481 2.969-.55 1.688-.075 2.194-.094 6.464-.094 4.276 0 4.782.019 6.464.094 1.563.069 2.407.331 2.969.55a4.914 4.914 0 0 1 1.838 1.194 4.974 4.974 0 0 1 1.194 1.838c.219.563.481 1.413.55 2.969.075 1.688.094 2.194.094 6.464s-.019 4.77-.094 6.458z"/>
      <path d="M16.059 7.783c-4.538 0-8.22 3.682-8.22 8.22s3.682 8.22 8.22 8.22 8.22-3.682 8.22-8.22-3.682-8.22-8.22-8.22zm0 13.552a5.333 5.333 0 0 1 0-10.664 5.333 5.333 0 0 1 0 10.664zM26.524 7.458a1.919 1.919 0 1 1-3.838 0 1.919 1.919 0 0 1 3.838 0z"/>
    </symbol>
    <symbol id="icon-rate4" viewBox="0 0 187 32">
<path fill="none" stroke="#ffca42" style="stroke: var(--color1, #ffca42)" stroke-linejoin="miter" stroke-linecap="butt" stroke-miterlimit="4" stroke-width="2.4615" d="M171.487 29.949c7.93 0 14.359-6.429 14.359-14.359s-6.429-14.359-14.359-14.359c-7.93 0-14.359 6.429-14.359 14.359s6.429 14.359 14.359 14.359z"></path>
<path fill="#ffca42" style="fill: var(--color1, #ffca42)" d="M132.513 31.18c8.61 0 15.59-6.98 15.59-15.59s-6.98-15.59-15.59-15.59c-8.61 0-15.59 6.98-15.59 15.59s6.98 15.59 15.59 15.59z"></path>
<path fill="#ffca42" style="fill: var(--color1, #ffca42)" d="M93.539 31.18c8.61 0 15.59-6.98 15.59-15.59s-6.98-15.59-15.59-15.59c-8.61 0-15.59 6.98-15.59 15.59s6.98 15.59 15.59 15.59z"></path>
<path fill="#ffca42" style="fill: var(--color1, #ffca42)" d="M54.564 31.18c8.61 0 15.59-6.98 15.59-15.59s-6.98-15.59-15.59-15.59c-8.61 0-15.59 6.98-15.59 15.59s6.98 15.59 15.59 15.59z"></path>
<path fill="#ffca42" style="fill: var(--color1, #ffca42)" d="M15.59 31.18c8.61 0 15.59-6.98 15.59-15.59s-6.98-15.59-15.59-15.59c-8.61 0-15.59 6.98-15.59 15.59s6.98 15.59 15.59 15.59z"></path>
</symbol>
    <symbol id="icon-rate5" viewBox="0 0 187 32">
<path fill="none" stroke="#ffca42" style="stroke: var(--color1, #ffca42)" stroke-linejoin="miter" stroke-linecap="butt" stroke-miterlimit="4" stroke-width="2.4615" d="M171.487 29.949c7.93 0 14.359-6.429 14.359-14.359s-6.429-14.359-14.359-14.359c-7.93 0-14.359 6.429-14.359 14.359s6.429 14.359 14.359 14.359z"></path>
<path fill="#ffca42" style="fill: var(--color1, #ffca42)" d="M171.487 31.18c-2.047 0-4.075-0.403-5.966-1.187s-3.61-1.932-5.057-3.379c-1.448-1.448-2.596-3.166-3.38-5.058s-1.186-3.919-1.186-5.966c0-2.047 0.403-4.075 1.186-5.966s1.932-3.61 3.38-5.058c1.448-1.448 3.166-2.596 5.057-3.379s3.919-1.187 5.966-1.187v31.18z"></path>
<path fill="#ffca42" style="fill: var(--color1, #ffca42)" d="M132.513 31.18c8.61 0 15.59-6.98 15.59-15.59s-6.98-15.59-15.59-15.59c-8.61 0-15.59 6.98-15.59 15.59s6.98 15.59 15.59 15.59z"></path>
<path fill="#ffca42" style="fill: var(--color1, #ffca42)" d="M93.539 31.18c8.61 0 15.59-6.98 15.59-15.59s-6.98-15.59-15.59-15.59c-8.61 0-15.59 6.98-15.59 15.59s6.98 15.59 15.59 15.59z"></path>
<path fill="#ffca42" style="fill: var(--color1, #ffca42)" d="M54.564 31.18c8.61 0 15.59-6.98 15.59-15.59s-6.98-15.59-15.59-15.59c-8.61 0-15.59 6.98-15.59 15.59s6.98 15.59 15.59 15.59z"></path>
<path fill="#ffca42" style="fill: var(--color1, #ffca42)" d="M15.59 31.18c8.61 0 15.59-6.98 15.59-15.59s-6.98-15.59-15.59-15.59c-8.61 0-15.59 6.98-15.59 15.59s6.98 15.59 15.59 15.59z"></path>
</symbol>
  </defs>
</svg>
